<?xml version="1.0" encoding="UTF-8"?>
<svg id="Layer_1" xmlns="http://www.w3.org/2000/svg" xmlns:xlink="http://www.w3.org/1999/xlink" version="1.1" viewBox="0 0 1280 578">
  <!-- Generator: Adobe Illustrator 29.5.1, SVG Export Plug-In . SVG Version: 2.1.0 Build 141)  -->
  <defs>
    <style>
      .flat-color {
        fill: #6fc2ea;
      }
    </style>
  </defs>
  <path class="flat-color" d="M69.96,452.33c-21.48-7.06-47.51-1.97-69.96-3.53v126.94c2.79-.44,19,1.21,19-1.5v-46.48h28.5c4.99,0,20.29-4.53,25.17-6.82,30.77-14.42,30.87-57.56-2.71-68.61ZM64.69,507.96c-2.68,1.68-13.47,5.81-16.19,5.81h-29.5c.32-.99-1-2.17-1-2.5v-49.48c17.69.52,54.22-3.67,57.74,20.75,1.51,10.47-2.01,19.77-11.05,25.42Z"/>
  <path class="flat-color" d="M402.52,491.75c-6.81-5.91-8.2-16.92-1.42-23.37,13.6-12.92,48.12-8.44,63.9-.59v-17c-6.01-1.73-12.17-3.57-18.46-4.03-24.58-1.81-73.48,2.13-69.43,37.41,2.89,25.13,44.36,32.26,62.56,43.42,10.02,6.14,17.57,16.91,8.34,27.67-12.84,14.98-55.75,7.74-71.01-2.51v17.99l26,7h4s0,0,0,0h16.98s0,0,0,0h6s1.99,0,1.99,0h0s2,0,2,0c-.58-3.26,1.66-1.6,3.45-2,19.02-4.24,35.57-13.34,33.59-35.53-2.61-29.22-50.94-33.22-68.52-48.46ZM409.3,577.1c3.53-.76,7.91-.82,11.55-.17-3.64-.65-8.02-.59-11.55.17ZM431.21,577.05h0s.29.26.29.26l-.29-.26Z"/>
  <path class="flat-color" d="M1261.94,516.33c-12.72-8.53-48.47-17.77-54.81-29.18-8.3-14.95,7.11-23.62,19.67-26.06,15.53-3.02,31.53.66,46.2,5.7v-15.5c0-4.62-38.28-4.84-42.54-4.53-21.48,1.54-47.66,12.9-44.49,38.55,2.96,23.87,46.53,31.72,63.37,42.61,9.99,6.47,16.14,18.68,6.3,28.46-13.91,13.83-54.24,6.57-69.63-3.63-.18,5.92-1.15,11.66-.13,17.55,1.69,2.12,13.6,4.36,16.97,5.14,1.76.4,3.74-.52,3.15,2.3h2s0,0,0,0h2.99s0,0,0,0h28c1.03-1.85,2.77-1.67,4.52-1.98,16.8-2.96,31.77-8.83,36.48-27.01v-10c-3.67-9.06-9.82-16.9-18.06-22.42Z"/>
  <path class="flat-color" d="M1001.51,446.81c-42.72,3.16-75.97,36.82-67.24,81.18,5.82,29.56,33.08,47.12,61.73,49.75,4.55.41,11.36.27,16,0,.13-.01,1.12-.95,2.42-1.04,11.84-.9,23.4-1.59,34.58-5.96v-14.99c-33.35,16.17-92.4,10.18-96.04-35.45-3.79-47.56,36.39-66.23,78.25-58.22,3.93.76,14.01,4.72,16.38,4.68.98-.02,2.04-.52,2.18-1.43.1-.67-.85-13.01-1.23-13.58-3.23-4.86-40.25-5.44-47.03-4.94Z"/>
  <path class="flat-color" d="M547,387.82c4.73-2.21,7.17-6.13,7.91-11.58,1.02-7.46,1.02-30.35,0-37.81-1.05-7.75-7.49-14.29-15.37-14.62l-242.81.27c-6.04,1.83-11.66,6.87-12.67,13.33-1.15,7.35-.91,31.17-.06,38.92.37,3.47,1.8,6.84,4,9.49,3.03,3.66,7.71,5.83,12.46,6.04l239.09.02c2.11-.19,7.77-.84,7.45-4.06Z"/>
  <path class="flat-color" d="M15.48,391.85l202.55-.5c5.09-2.8,11.06-8.05,11.88-14.11.98-7.23,1.13-32.81.03-39.83-2.53-16.12-20.08-12.96-31.48-13.52-35.84-1.75-71.91-.8-107.9-1.1-4.3-.69-7.56-6.65-9.79-10.2-1.79-98.52-.27-197.43-.77-296.1-.9-8.38-6.28-12.54-13-16.49H0v13.99h0v364.84c2.78,6.75,8.09,11.59,15.48,13.02ZM15,1c5.42-.6,11.22-.6,17.14-.42-5.92-.18-11.72-.18-17.14.42C7.15,1.87,4.63,5.83,1.42,11.5,4.63,5.83,7.15,1.86,15,1Z"/>
  <path class="flat-color" d="M259.26,449.04l-55.76,102.72-54.5-102.55-2.49-1.07-22.51.66v126.94h18v-104.95l56.1,103.35c1.91,2.47,8.86,2.6,10.79-.01l56.1-103.34-.99,104.95h19v-126.94c-7.94.21-15.88-1.1-23.74.24Z"/>
  <path class="flat-color" d="M942.08,374.33c-48.04-122.24-101.17-242.58-150.57-364.35-2.17-5.04-7.54-6.83-11.51-9.98h-62c-3.76,3.11-8.29,5.24-10.56,9.94-22.42,48.95-40.95,100.16-63.13,148.99-3.71,8.17-8.1,19.06-18.77,19.03-107.3,1.49-214.79-2.12-322.07-.06-1.87.03-4.03-.58-5.47,1.02-1.61.2-8.19,3.53-9.55,4.95-1.91,2-4.13,6.73-4.47,9.52-.84,6.82-1.02,35.63.25,41.78,1.02,4.96,6.82,11,11.74,12.25,56.99.91,114.04.41,171.03.47,73.33.08,146.71.33,220.03-.47,6.78-2.4,9.4-8.83,12.15-14.84,12.83-28.07,22.14-59.57,34.85-87.91,2.21-.98,1.93-3.17,3.57-4.62,8.83-7.81,23.04-4.87,27.58,6.2,27.96,67.77,53.76,136.5,81.62,204.29,3.16,7.69,10.75,28.82,14.76,34.23,3.68,4.97,10.05,6.63,15.9,7.09,12.05.95,36.26,1.24,48.04-.04,9.07-.98,16.36-8.2,16.58-17.49Z"/>
  <path class="flat-color" d="M1274.46,88c-14.85-48.7-59.66-79.63-108.98-85.98-5.27-.68-11.52,1.05-16.48-2.02h-174c.08,2.96-3.6,2.3-6.05,4.45-3.88,3.41-6,9.88-5.99,15v353.92c.99,11.38,7.15,17.5,18.5,18.49,11.02.95,33.12,1.05,44.03-.05,11.79-1.19,16.66-8.13,17.55-19.44,2.63-33.75-2.03-70.9-.06-105.01,2.05-10.34,9.67-13.73,19.48-14.51,40.77-3.24,83.29,5.56,123.54-5.46,43.34-11.88,76.85-40.89,89.26-84.7,1.78-6.27,2.01-13.08,4.74-18.76v-35.98c-3.26-5.82-3.53-13.37-5.54-19.95ZM1186.61,167.54c-10.83,12.07-27.25,17.3-43.12,18.37-22.43,1.5-59.87,1.93-82.03.04-8.44-.72-17.37-5.22-18.48-14.51-3.29-27.29,2.52-61.01,0-89,.98-7.93,7.98-13.32,15.52-14.47,35.39,4.2,100.78-11.78,127.01,16.98,19.23,21.08,20.19,61.29,1.1,82.59Z"/>
  <path class="flat-color" d="M298.48,67.99c27.84.01,55.69-.09,83.52-.02,53.66.13,107.38.29,161.03-.47,5.27-2.21,10.55-6.38,11.74-12.25,1.37-6.69.94-31.24.27-38.8-.79-8.91-5.72-12.53-13.04-16.45h-244v1c-6.93.75-12.96,6.63-13.91,13.58-.98,7.21-1.12,32.83-.03,39.83,1.05,6.73,7.66,12.76,14.42,13.58Z"/>
  <polygon class="flat-color" points="794.5 558.73 747.5 447.8 728 447.8 784.11 575.62 803.54 575.8 862 448.8 842.16 448.96 794.5 558.73"/>
  <path class="flat-color" d="M1099,560.25v-40.99c0-.1,1.39-1.5,1.5-1.5h54.5v-13.99h-56v-40.48c0-.11,1.39-1.5,1.5-1.5h59.5v-12.99h-79v124.44c0,.16-1.73,2.5.5,2.5h81.5v-14h-62.5c-.11,0-1.5-1.39-1.5-1.49Z"/>
  <path class="flat-color" d="M679.36,518.9c-1.35-.79-2.79-1.17-4.36-1.15,3.38-3.6,9.89-3.82,14.31-6.21.47-.25,6.91-4.77,7.63-5.34,13.56-10.65,14.87-33.26,2.6-45.45-17.93-17.78-57.94-10.72-81.54-11.95-.66-.04-1.38.09-2,0-.55-.08-1.74-1.4-1.99-1-.05,1.66.03,3.33-.01,4.99-.08,2.99.03,6.01,0,9v1c-.04,5.65.02,11.34,0,16.99v1c-.01,4.66.01,9.34,0,13.99v1c-.04,24.75-1.27,51.48,0,75.97.02.33-.01.67,0,1,.04,1-.05,2.01-.01,3,3.94-.7,15.63,1.39,18.01-1,.55-6.92.31-14.3,0-21.73v-29.25c.11-.99.74-1.41,1-2,6.32.09,12.68-.12,19,0,.67.02,1.33-.02,2,0,.5.02,1.48.98,2,1,.66.02,1.34.02,2,0,20.66,11.05,30.91,35.41,45.5,52.98h21.5c-.07-2.22-1.8-4.46-3.04-6.22-7.31-10.41-33.24-45.14-42.6-50.62ZM640,449.79h6.01v.87s0-.87,0-.87h-6.01ZM639.99,450.93v.87s6.01,0,6.01,0h0s-6.01,0-6.01,0v-.87ZM632,507.77c-.74-15.24.55-30.72-.01-45.99,5.33.05,10.69-.04,16.01,0,2.32.02,4.69-.13,7,0,.33.02.67-.02,1,0,12.33.81,30.52,3.08,32.05,18.44,3.22,32.39-34.21,27.41-56.05,27.54Z"/>
  <rect class="flat-color" x="884" y="447.8" width="19" height="127.94"/>
  <rect class="flat-color" x="502" y="561.74" width="83.05" height="14"/>
  <rect class="flat-color" x="502" y="503.77" width="74.8" height="13.99"/>
  <rect class="flat-color" x="502" y="448.8" width="79" height="12.99"/>
</svg>
